<?xml version="1.0" encoding="iso-8859-1"?>
<!-- Generator: Adobe Illustrator 16.0.0, SVG Export Plug-In . SVG Version: 6.00 Build 0)  -->
<!DOCTYPE svg PUBLIC "-//W3C//DTD SVG 1.1//EN" "http://www.w3.org/Graphics/SVG/1.1/DTD/svg11.dtd">
<svg version="1.1" id="Capa_1" xmlns="http://www.w3.org/2000/svg" xmlns:xlink="http://www.w3.org/1999/xlink" x="0px" y="0px"
	 width="326.7px" height="326.7px" viewBox="0 0 326.7 326.7" style="enable-background:new 0 0 326.7 326.7;" xml:space="preserve"
	 fill="#e8ecef"
	>
<g>
	<g>
		<path d="M326.7,255.601l-1.767-1.34h1.767V71.099H0v183.162h1.727L0,255.601H326.7z M33.312,243.461l94.634-73.285l33.605,26.024
			l34.425-26.077l96.815,73.338H33.312z M315.9,81.899v161.562h-5.221l-105.759-80.109l107.52-81.453H315.9z M294.559,81.899
			l-98.582,74.677l-8.938,6.771l-25.41,19.243l-24.856-19.243l-8.82-6.832L31.585,81.899H294.559z M10.8,81.899h3.148
			l105.182,81.448L15.675,243.461H10.8V81.899z"/>
	</g>
</g>
<g>
</g>
<g>
</g>
<g>
</g>
<g>
</g>
<g>
</g>
<g>
</g>
<g>
</g>
<g>
</g>
<g>
</g>
<g>
</g>
<g>
</g>
<g>
</g>
<g>
</g>
<g>
</g>
<g>
</g>
</svg>
